<svg width="45" height="45" viewBox="0 0 45 45" fill="none" xmlns="http://www.w3.org/2000/svg">
<circle cx="22.5" cy="22.5" r="22" stroke="#BD9977"/>
<path d="M25.7695 30C25.457 29.8438 25.1914 29.625 24.9727 29.3438C24.7617 29.0547 24.6562 28.7266 24.6562 28.3594C24.375 28.5703 24.0977 28.7891 23.8242 29.0156C23.5586 29.2422 23.2656 29.4492 22.9453 29.6367C22.6328 29.8164 22.2812 29.9648 21.8906 30.082C21.5078 30.1992 21.0625 30.2578 20.5547 30.2578C20.0859 30.2578 19.6602 30.1797 19.2773 30.0234C18.9023 29.875 18.582 29.668 18.3164 29.4023C18.0586 29.1367 17.8555 28.8203 17.707 28.4531C17.5664 28.0859 17.4961 27.6914 17.4961 27.2695C17.4961 26.7539 17.5977 26.2891 17.8008 25.875C18.0039 25.4609 18.2812 25.0938 18.6328 24.7734C18.9922 24.4453 19.4062 24.1562 19.875 23.9062C20.3438 23.6484 20.8438 23.4219 21.375 23.2266C21.9062 23.0234 22.4531 22.8438 23.0156 22.6875C23.5781 22.5312 24.125 22.3867 24.6562 22.2539V21.5039C24.6562 20.957 24.6172 20.4961 24.5391 20.1211C24.4609 19.7461 24.3398 19.4453 24.1758 19.2188C24.0117 18.9844 23.8008 18.8203 23.543 18.7266C23.293 18.625 22.9922 18.5742 22.6406 18.5742C22.3047 18.5742 21.9961 18.6406 21.7148 18.7734C21.4336 18.9062 21.1836 19.0859 20.9648 19.3125C20.7539 19.5312 20.5781 19.793 20.4375 20.0977C20.3047 20.3945 20.2148 20.7109 20.168 21.0469H17.9883C18.0508 20.5312 18.2266 20.0703 18.5156 19.6641C18.8125 19.2578 19.1836 18.918 19.6289 18.6445C20.0742 18.3633 20.5781 18.1484 21.1406 18C21.7109 17.8516 22.3008 17.7773 22.9102 17.7773C23.6914 17.7773 24.3477 17.8555 24.8789 18.0117C25.4102 18.1602 25.8359 18.3711 26.1562 18.6445C26.4766 18.918 26.7031 19.2539 26.8359 19.6523C26.9766 20.043 27.0469 20.4766 27.0469 20.9531V28.3594C27.0469 28.7266 27.1523 29.0547 27.3633 29.3438C27.582 29.625 27.8477 29.8438 28.1602 30H25.7695ZM24.6562 23.0156C24.3125 23.125 23.957 23.25 23.5898 23.3906C23.2227 23.5312 22.8633 23.6914 22.5117 23.8711C22.1602 24.043 21.8242 24.2305 21.5039 24.4336C21.1836 24.6367 20.9023 24.8555 20.6602 25.0898C20.418 25.3242 20.2266 25.5703 20.0859 25.8281C19.9453 26.0859 19.875 26.3555 19.875 26.6367C19.875 26.9336 19.9297 27.2148 20.0391 27.4805C20.1484 27.7383 20.293 27.9688 20.4727 28.1719C20.6523 28.3672 20.8594 28.5234 21.0938 28.6406C21.3281 28.75 21.5703 28.8047 21.8203 28.8047C22.0859 28.8047 22.3398 28.7695 22.582 28.6992C22.8242 28.6289 23.0586 28.5352 23.2852 28.418C23.5117 28.293 23.7383 28.1523 23.9648 27.9961C24.1914 27.8398 24.4219 27.6719 24.6562 27.4922V23.0156Z" fill="#BD9977"/>
</svg>
